<svg version="1.1" id="logo" class="logo" xmlns="http://www.w3.org/2000/svg" xmlns:xlink="http://www.w3.org/1999/xlink" x="0px" y="0px" viewBox="0 0 600 65"  xml:space="preserve">
<g class="logo__text">
	<path class="logo__path" d="M14.2,64H1.8V3.6h12.5V64z"/>
	<path class="logo__path" d="M37.6,64h-12V0.3h12V64z"/>
	<path class="logo__path" d="M60.2,64h-12V0.3h12V64z"/>
	<path class="logo__path" d="M96.9,59.4c-3,3.6-7.1,5.4-12.3,5.4c-4.8,0-8.5-1.4-11-4.2c-2.5-2.8-3.8-6.8-3.9-12.2V19.1h12v29
		c0,4.7,2.1,7,6.4,7c4.1,0,6.9-1.4,8.4-4.2V19.1h12V64H97.3L96.9,59.4z"/>
	<path class="logo__path" d="M141.9,51.6c0-1.5-0.7-2.6-2.2-3.5c-1.5-0.8-3.8-1.6-7-2.3c-10.7-2.2-16-6.8-16-13.6c0-4,1.7-7.3,5-10
		c3.3-2.7,7.6-4,13-4c5.7,0,10.3,1.3,13.7,4c3.4,2.7,5.1,6.2,5.1,10.5h-12c0-1.7-0.6-3.1-1.7-4.3c-1.1-1.1-2.8-1.7-5.2-1.7
		c-2,0-3.6,0.5-4.7,1.4c-1.1,0.9-1.7,2.1-1.7,3.5c0,1.3,0.6,2.4,1.9,3.2c1.3,0.8,3.4,1.5,6.4,2.1c3,0.6,5.5,1.3,7.6,2
		c6.3,2.3,9.5,6.4,9.5,12.1c0,4.1-1.8,7.4-5.3,9.9c-3.5,2.5-8.1,3.8-13.6,3.8c-3.8,0-7.1-0.7-10-2c-2.9-1.3-5.2-3.2-6.9-5.5
		c-1.7-2.3-2.5-4.9-2.5-7.6h11.4c0.1,2.1,0.9,3.8,2.4,4.9c1.5,1.1,3.4,1.7,5.9,1.7c2.3,0,4-0.4,5.2-1.3
		C141.3,54.1,141.9,53,141.9,51.6z"/>
	<path class="logo__path" d="M175.7,8.1v11h7.7v8.8h-7.7v22.4c0,1.7,0.3,2.9,1,3.6c0.6,0.7,1.9,1.1,3.7,1.1c1.3,0,2.5-0.1,3.5-0.3v9.1
		c-2.4,0.7-4.8,1.1-7.3,1.1c-8.4,0-12.7-4.2-12.9-12.7V27.9h-6.6v-8.8h6.6v-11H175.7z"/>
	<path class="logo__path" d="M215.3,30.3c-1.6-0.2-3.1-0.3-4.3-0.3c-4.5,0-7.5,1.5-8.9,4.6V64h-12V19.1h11.3l0.3,5.4
		c2.4-4.1,5.7-6.2,10-6.2c1.3,0,2.6,0.2,3.7,0.5L215.3,30.3z"/>
	<path class="logo__path" d="M245.8,64c-0.6-1.1-1-2.4-1.2-4c-2.9,3.2-6.7,4.9-11.3,4.9c-4.4,0-8-1.3-10.9-3.8c-2.9-2.5-4.3-5.8-4.3-9.6
		c0-4.8,1.8-8.4,5.3-11c3.5-2.5,8.6-3.8,15.3-3.9h5.5V34c0-2.1-0.5-3.7-1.6-5c-1.1-1.2-2.7-1.9-5-1.9c-2,0-3.6,0.5-4.8,1.5
		c-1.1,1-1.7,2.3-1.7,4h-12c0-2.6,0.8-5,2.4-7.2c1.6-2.2,3.9-3.9,6.8-5.2c2.9-1.3,6.2-1.9,9.9-1.9c5.5,0,9.9,1.4,13.2,4.2
		c3.3,2.8,4.9,6.7,4.9,11.7v19.5c0,4.3,0.6,7.5,1.8,9.7V64H245.8z M235.9,55.7c1.8,0,3.4-0.4,4.9-1.2c1.5-0.8,2.6-1.8,3.3-3.2v-7.7
		h-4.5c-6,0-9.2,2.1-9.6,6.2l0,0.7c0,1.5,0.5,2.7,1.6,3.7C232.6,55.2,234.1,55.7,235.9,55.7z"/>
	<path class="logo__path" d="M279.7,8.1v11h7.7v8.8h-7.7v22.4c0,1.7,0.3,2.9,1,3.6c0.6,0.7,1.9,1.1,3.7,1.1c1.3,0,2.5-0.1,3.5-0.3v9.1
		c-2.4,0.7-4.8,1.1-7.3,1.1c-8.4,0-12.7-4.2-12.9-12.7V27.9h-6.6v-8.8h6.6v-11H279.7z"/>
	<path class="logo__path" d="M294,7.5c0-1.8,0.6-3.3,1.8-4.4c1.2-1.2,2.8-1.7,4.9-1.7c2,0,3.7,0.6,4.9,1.7c1.2,1.2,1.8,2.6,1.8,4.4
		c0,1.8-0.6,3.3-1.8,4.5c-1.2,1.2-2.9,1.7-4.9,1.7c-2,0-3.6-0.6-4.9-1.7C294.6,10.8,294,9.3,294,7.5z M306.7,64h-12V19.1h12V64z"/>
	<path class="logo__path" d="M333.4,49.3l8.3-30.3h12.5L339.2,64h-11.5l-15.1-44.9h12.5L333.4,49.3z"/>
	<path class="logo__path" d="M379.7,64.8c-6.6,0-11.9-2-16.1-6.1c-4.1-4-6.2-9.4-6.2-16.1v-1.2c0-4.5,0.9-8.5,2.6-12.1
		c1.7-3.6,4.2-6.3,7.4-8.2c3.2-1.9,6.8-2.9,10.9-2.9c6.1,0,11,1.9,14.5,5.8c3.5,3.9,5.3,9.4,5.3,16.5v4.9h-28.6
		c0.4,2.9,1.6,5.3,3.5,7.1c2,1.8,4.4,2.7,7.4,2.7c4.6,0,8.2-1.7,10.8-5l5.9,6.6c-1.8,2.5-4.2,4.5-7.3,6
		C386.8,64.1,383.4,64.8,379.7,64.8z M378.3,27.9c-2.4,0-4.3,0.8-5.8,2.4c-1.5,1.6-2.4,3.9-2.8,6.9h16.7v-1
		c-0.1-2.7-0.8-4.7-2.2-6.2C382.8,28.7,380.9,27.9,378.3,27.9z"/>
	<path class="logo__path" d="M446,45.7c-0.3,2.7-1,5.2-2,7.6c-1,2.3-2.4,4.4-4.1,6.1c-1.7,1.7-3.7,3.1-6,4c-2.3,1-4.9,1.5-7.8,1.5
		c-2.4,0-4.6-0.4-6.5-1.1c-2-0.7-3.7-1.7-5.2-3c-1.5-1.3-2.8-2.8-3.9-4.5c-1.1-1.7-2-3.6-2.7-5.5c-0.7-2-1.3-4-1.6-6.2
		s-0.5-4.2-0.6-6.4v-8.8c0-2.1,0.2-4.2,0.6-6.4c0.3-2.1,0.9-4.2,1.6-6.2c0.7-2,1.6-3.8,2.7-5.5c1.1-1.7,2.4-3.2,3.9-4.5
		c1.5-1.3,3.2-2.3,5.2-3c2-0.7,4.1-1.1,6.5-1.1c2.9,0,5.6,0.5,7.9,1.5c2.3,1,4.3,2.3,6,4c1.7,1.7,3,3.8,4,6.1c1,2.4,1.7,4.9,2,7.7
		h-4.9c-0.3-2.1-0.9-4-1.6-5.9c-0.7-1.8-1.7-3.4-2.9-4.8c-1.2-1.4-2.7-2.4-4.4-3.2c-1.7-0.8-3.7-1.2-6-1.2c-2,0-3.7,0.3-5.2,1
		c-1.5,0.7-2.9,1.5-4,2.7c-1.1,1.1-2.1,2.4-2.9,3.9c-0.8,1.5-1.5,3.1-2,4.7s-0.9,3.4-1.1,5.1c-0.2,1.7-0.4,3.4-0.4,5v8.8
		c0,1.6,0.1,3.3,0.4,5.1c0.2,1.7,0.6,3.4,1.1,5.1s1.1,3.2,2,4.7c0.8,1.5,1.8,2.8,2.9,3.9c1.1,1.1,2.5,2,4,2.7c1.5,0.7,3.3,1,5.2,1
		c2.3,0,4.4-0.4,6.1-1.1s3.2-1.8,4.4-3.2c1.2-1.4,2.2-2.9,2.9-4.8s1.3-3.8,1.6-5.9H446z"/>
	<path class="logo__path" d="M497.2,37.8c0,2-0.2,4.1-0.5,6.3c-0.3,2.1-0.9,4.2-1.6,6.2c-0.7,2-1.6,3.9-2.7,5.6c-1.1,1.8-2.4,3.3-3.8,4.6
		c-1.5,1.3-3.2,2.4-5.1,3.1c-1.9,0.8-4.1,1.1-6.5,1.1c-2.4,0-4.5-0.4-6.5-1.1c-1.9-0.8-3.7-1.8-5.2-3.1s-2.8-2.9-3.9-4.6
		c-1.1-1.8-2-3.7-2.7-5.7c-0.7-2-1.2-4.1-1.6-6.2c-0.3-2.1-0.5-4.2-0.6-6.3v-8c0-2,0.2-4.1,0.6-6.3c0.3-2.1,0.9-4.2,1.6-6.2
		c0.7-2,1.6-3.9,2.7-5.7c1.1-1.8,2.4-3.3,3.9-4.6s3.2-2.4,5.1-3.1c1.9-0.8,4.1-1.1,6.5-1.1c2.4,0,4.6,0.4,6.5,1.1
		c1.9,0.8,3.7,1.8,5.2,3.1c1.5,1.3,2.8,2.9,3.9,4.6c1.1,1.8,2,3.7,2.7,5.7c0.7,2,1.2,4.1,1.6,6.2c0.3,2.1,0.5,4.3,0.5,6.3V37.8z
		 M492.3,29.8c0-1.6-0.2-3.3-0.4-5c-0.2-1.7-0.6-3.4-1.1-5.1s-1.1-3.2-1.9-4.8c-0.8-1.5-1.8-2.8-2.9-4c-1.1-1.1-2.5-2-4-2.7
		c-1.5-0.7-3.3-1-5.2-1s-3.7,0.3-5.2,1c-1.5,0.7-2.8,1.6-4,2.7c-1.1,1.1-2.1,2.5-2.9,4c-0.8,1.5-1.4,3.1-1.9,4.8s-0.9,3.4-1.1,5.1
		c-0.2,1.7-0.3,3.4-0.4,5v8.1c0,1.6,0.2,3.3,0.4,5c0.2,1.7,0.6,3.4,1.1,5.1c0.5,1.7,1.1,3.3,1.9,4.8c0.8,1.5,1.8,2.8,2.9,4
		c1.1,1.1,2.5,2,4,2.7c1.5,0.7,3.3,1,5.2,1c2,0,3.7-0.3,5.2-1c1.5-0.7,2.8-1.6,4-2.7c1.1-1.1,2.1-2.5,2.9-4c0.8-1.5,1.4-3.1,1.9-4.8
		c0.5-1.7,0.8-3.4,1-5.1c0.2-1.7,0.3-3.4,0.4-5V29.8z"/>
	<path class="logo__path" d="M509.7,64V3.6h14.6c3.9,0.1,7.3,0.8,10.4,2.3c3,1.5,5.6,3.4,7.7,5.9c2.1,2.5,3.7,5.3,4.8,8.6
		c1.1,3.3,1.7,6.8,1.7,10.5v5.9c-0.1,3.7-0.6,7.2-1.7,10.5c-1.1,3.3-2.7,6.2-4.8,8.6c-2.1,2.5-4.7,4.4-7.7,5.9
		c-3,1.5-6.5,2.2-10.4,2.3H509.7z M514.7,7.8v52h9.6c3.2-0.1,6.1-0.7,8.5-2c2.4-1.3,4.5-3,6.1-5.1c1.6-2.1,2.9-4.6,3.7-7.3
		c0.8-2.8,1.3-5.6,1.3-8.7v-6.1c0-3-0.5-5.9-1.3-8.6c-0.8-2.7-2.1-5.2-3.7-7.3c-1.6-2.1-3.7-3.8-6.1-5.1c-2.4-1.3-5.3-1.9-8.5-2
		H514.7z"/>
	<path class="logo__path" d="M593.3,35h-26.6v24.7h30.7V64h-35.7V3.6h35.5v4.4h-30.5v22.8h26.6V35z"/>
</g>
</svg>
