<svg xmlns="http://www.w3.org/2000/svg" viewBox="0 0 254.46 243.25"><style>@media (prefers-color-scheme:dark){.a {fill:#fff}}</style><path class="a" fill="#333" d="M183.8,377.48H135V140.73H183.8Z" transform="translate(-135.03 -137.48)"/><path class="a" fill="#333" d="M381,336.42a77.64,77.64,0,0,1-16.43,23.5,72.07,72.07,0,0,1-24.14,15.36,84.3,84.3,0,0,1-31,5.45,80.56,80.56,0,0,1-26.58-4.15,71.87,71.87,0,0,1-21.22-11.46,75.12,75.12,0,0,1-16.18-17.24,102,102,0,0,1-11.14-21.62,127.19,127.19,0,0,1-6.75-24.55,165.92,165.92,0,0,1-2.35-26v-33a165.69,165.69,0,0,1,2.35-26,127,127,0,0,1,6.75-24.55,103.87,103.87,0,0,1,11.14-21.71,74.49,74.49,0,0,1,16.18-17.32,72.06,72.06,0,0,1,21.14-11.46,80.33,80.33,0,0,1,26.66-4.15q17.73,0,31.71,5.45a70,70,0,0,1,24.06,15.37,77.26,77.26,0,0,1,16.18,24.06,107.59,107.59,0,0,1,8.05,30.89H359.41a89.18,89.18,0,0,0-5-20A55.44,55.44,0,0,0,344.78,177a42.61,42.61,0,0,0-14.72-11q-8.7-4-20.57-4a48,48,0,0,0-18.94,3.49A42.7,42.7,0,0,0,276.49,175a53,53,0,0,0-10,14,91.6,91.6,0,0,0-6.43,16.91,121.28,121.28,0,0,0-3.49,18.29,160.07,160.07,0,0,0-1.06,18.13v33.33a160.2,160.2,0,0,0,1.06,18.13,121.28,121.28,0,0,0,3.49,18.29,94.45,94.45,0,0,0,6.34,17.08,52.06,52.06,0,0,0,9.92,14,43.49,43.49,0,0,0,14.15,9.67,47.68,47.68,0,0,0,19,3.5q11.86,0,20.57-3.74A40.88,40.88,0,0,0,344.78,342a51.11,51.11,0,0,0,9.59-15.85,87.81,87.81,0,0,0,5-19.92h30.08A103.1,103.1,0,0,1,381,336.42Z" transform="translate(-135.03 -137.48)"/></svg>